<svg height='100px' width='100px'  fill="#000000" xmlns="http://www.w3.org/2000/svg" xmlns:xlink="http://www.w3.org/1999/xlink" xmlns:serif="http://www.serif.com/" viewBox="0 0 8 8" version="1.1" xml:space="preserve" style="" x="0px" y="0px" fill-rule="evenodd" clip-rule="evenodd" stroke-linejoin="round" stroke-miterlimit="1.41421"><path d="M3.098,5.04c0,0.793 -0.643,1.435 -1.435,1.435c-0.793,0 -1.436,-0.643 -1.436,-1.435c0,-0.793 0.643,-1.435 1.436,-1.435l0,0.358c-0.595,0 -1.077,0.482 -1.077,1.077c0,0.594 0.482,1.077 1.077,1.077c0.594,0 1.076,-0.482 1.076,-1.077l0.359,0Zm4.355,0c0,0.793 -0.643,1.435 -1.436,1.435c-0.792,0 -1.435,-0.643 -1.435,-1.435c0,-0.793 0.643,-1.435 1.435,-1.435l0,0.358c-0.594,0 -1.076,0.482 -1.076,1.077c0,0.594 0.482,1.077 1.076,1.077c0.595,0 1.077,-0.482 1.077,-1.077l0.359,0Zm-5.541,-1.711c-0.096,-0.042 -0.173,-0.126 -0.202,-0.236c-0.052,-0.192 0.062,-0.389 0.254,-0.441l2.622,-0.702c0.192,-0.052 0.39,0.062 0.441,0.254c0.048,0.178 -0.047,0.362 -0.215,0.428l-0.178,0.309l1.396,0c0.132,0 0.24,0.107 0.24,0.24c0,0.132 -0.108,0.24 -0.24,0.24l-1.81,0c-0.023,0 -0.046,-0.003 -0.068,-0.01c-0.019,-0.005 -0.038,-0.013 -0.055,-0.023l0,0l0,-0.001l-0.001,0l0,0c-0.036,-0.021 -0.065,-0.051 -0.085,-0.086c-0.021,-0.035 -0.032,-0.076 -0.033,-0.12l0,0l0,0l0,0l0,-0.001c0,-0.018 0.002,-0.036 0.007,-0.053l0,-0.001l0,0l0,0l0,0c0.005,-0.024 0.014,-0.046 0.026,-0.067l0.144,-0.248l-1.49,0.399l1.668,0.963c0.077,0.044 0.12,0.125 0.12,0.208c0,0.041 -0.01,0.082 -0.032,0.12l-0.787,1.364c-0.066,0.114 -0.213,0.154 -0.328,0.087c-0.115,-0.066 -0.154,-0.213 -0.088,-0.327l0.668,-1.157l-1.974,-1.139Zm3.585,-2.124c0.294,0.001 0.533,0.241 0.533,0.536c0,0.296 -0.24,0.536 -0.536,0.536c-0.296,0 -0.536,-0.24 -0.536,-0.536c0,-0.069 0.013,-0.135 0.036,-0.195l-0.474,-0.231c-0.024,-0.012 -0.037,-0.039 -0.031,-0.066c0.006,-0.026 0.029,-0.044 0.056,-0.044c0.352,0 0.949,0 0.949,0l0.003,0Z"></path></svg>